<svg class="svg-icon" style="width: 1.001953125em;height: 1em;vertical-align: middle;fill: currentColor;overflow: hidden;" viewBox="0 0 1026 1024" version="1.1" xmlns="http://www.w3.org/2000/svg"><path d="M962.56 527.36h-901.12a40.96 40.96 0 0 0-40.96 40.96v307.2h983.04v-307.2a40.96 40.96 0 0 0-40.96-40.96zM81.92 527.36V218.3168a80.0768 80.0768 0 0 1 79.872-80.0768H862.208a80.0768 80.0768 0 0 1 80.0768 80.0768v309.0432" fill="#EBEBFF" /><path d="M565.248 527.36a334.4384 334.4384 0 0 1-8.192-80.0768 393.216 393.216 0 0 1 8.192-83.7632 625.0496 625.0496 0 0 1 143.36-14.336 625.0496 625.0496 0 0 1 143.36 14.336 331.5712 331.5712 0 0 1 8.192 79.2576 411.4432 411.4432 0 0 1-8.192 84.5824" fill="#5CBDFF" /><path d="M172.032 527.36a334.4384 334.4384 0 0 1-8.192-80.0768 393.216 393.216 0 0 1 8.192-83.7632 625.0496 625.0496 0 0 1 143.36-14.336 625.0496 625.0496 0 0 1 143.36 14.336 331.5712 331.5712 0 0 1 8.192 79.2576 411.4432 411.4432 0 0 1-8.192 84.5824" fill="#FF457A" /><path d="M28.0576 768H1007.616v106.496H28.0576z" fill="#F4D240" /><path d="M962.56 506.88V218.3168A100.5568 100.5568 0 0 0 862.208 117.76H161.792a100.5568 100.5568 0 0 0-100.352 100.5568v288.5632a61.44 61.44 0 0 0-61.44 61.44v307.2a20.48 20.48 0 0 0 20.48 20.48H63.488v20.48a10.24 10.24 0 0 0 10.24 10.24h143.36a10.24 10.24 0 0 0 10.24-10.24v-20.48h573.44v20.48a10.24 10.24 0 0 0 10.24 10.24h143.36a10.24 10.24 0 0 0 10.24-10.24v-20.48h38.912a20.48 20.48 0 0 0 20.48-20.48v-307.2a61.44 61.44 0 0 0-61.44-61.44z m-860.16-288.5632a59.5968 59.5968 0 0 1 59.392-59.5968H862.208a59.5968 59.5968 0 0 1 59.5968 59.5968v288.5632h-45.6704a471.04 471.04 0 0 0 4.3008-63.8976 351.4368 351.4368 0 0 0-8.8064-84.7872 20.48 20.48 0 0 0-14.5408-14.5408A640.4096 640.4096 0 0 0 708.608 327.68a640.4096 640.4096 0 0 0-148.48 14.9504 20.48 20.48 0 0 0-14.7456 14.9504 411.2384 411.2384 0 0 0-8.8064 88.6784 421.6832 421.6832 0 0 0 4.096 59.5968h-57.7536a471.04 471.04 0 0 0 4.3008-63.8976 350.4128 350.4128 0 0 0-9.0112-84.7872 20.48 20.48 0 0 0-14.5408-14.5408A640.4096 640.4096 0 0 0 315.392 327.68a640.4096 640.4096 0 0 0-149.504 15.9744 20.48 20.48 0 0 0-14.7456 14.9504 411.2384 411.2384 0 0 0-8.8064 88.6784 421.6832 421.6832 0 0 0 4.096 59.5968H102.4z m479.6416 288.5632a370.0736 370.0736 0 0 1-4.5056-59.5968 412.4672 412.4672 0 0 1 5.3248-66.7648A673.9968 673.9968 0 0 1 708.608 368.64a672.768 672.768 0 0 1 125.952 11.0592 363.7248 363.7248 0 0 1 5.12 61.44 426.1888 426.1888 0 0 1-4.9152 64.1024z m-393.216 0a370.0736 370.0736 0 0 1-4.5056-59.5968 412.4672 412.4672 0 0 1 5.3248-66.7648A673.9968 673.9968 0 0 1 315.392 368.64a672.5632 672.5632 0 0 1 125.952 11.0592 363.1104 363.1104 0 0 1 5.12 61.44 424.96 424.96 0 0 1-4.9152 64.1024z m-127.3856 40.96h901.12a20.48 20.48 0 0 1 20.48 20.48v184.32h-942.08v-184.32a20.48 20.48 0 0 1 20.48-20.48z m-20.48 307.2v-61.44h942.08v61.44z" fill="#37348F" /></svg>